<?xml version="1.0" encoding="utf-8"?>
<!-- Generator: Adobe Illustrator 19.0.0, SVG Export Plug-In . SVG Version: 6.00 Build 0)  -->
<svg xmlns="http://www.w3.org/2000/svg" xmlns:xlink="http://www.w3.org/1999/xlink" version="1.1" id="Layer_1" x="0px" y="0px" viewBox="0 2 98 98" style="enable-background:new 0 2 98 98;" xml:space="preserve" width="512" height="512">
<style type="text/css">
	.st0{fill:url(#SVGID_1_);}
</style>
<linearGradient id="SVGID_1_" gradientUnits="userSpaceOnUse" x1="49" y1="12.7002" x2="49" y2="89.2998">
	<stop offset="0" style="stop-color:#00EFD1"/>
	<stop offset="1" style="stop-color:#00ACEA"/>
</linearGradient>
<path class="st0" d="M75.6,56.5c-1.2-1.2-3.1-1.2-4.2,0c-1.2,1.2-1.2,3.1,0,4.2l8.8,8.8H66.4L50.6,51l15.7-18.5h13.8l-8.8,8.8  c-1.2,1.2-1.2,3.1,0,4.2c0.6,0.6,1.4,0.9,2.1,0.9s1.5-0.3,2.1-0.9l13.9-13.9c0.6-0.6,0.9-1.3,0.9-2.1s-0.3-1.6-0.9-2.1L75.6,13.6  c-1.2-1.2-3.1-1.2-4.2,0c-1.2,1.2-1.2,3.1,0,4.2l8.7,8.7H65c-0.9,0-1.7,0.4-2.3,1.1l-16,18.8l-16-18.8c-0.6-0.7-1.4-1.1-2.3-1.1  H10.6c-1.7,0-3,1.3-3,3s1.3,3,3,3H27L42.8,51L27,69.5H10.6c-1.7,0-3,1.3-3,3s1.3,3,3,3h17.8c0.9,0,1.7-0.4,2.3-1.1l16-18.8l16,18.8  c0.6,0.7,1.4,1.1,2.3,1.1h15.1l-8.7,8.7c-1.2,1.2-1.2,3.1,0,4.2c0.6,0.6,1.4,0.9,2.1,0.9c0.8,0,1.5-0.3,2.1-0.9l13.9-13.8  c0.6-0.6,0.9-1.3,0.9-2.1c0-0.8-0.3-1.6-0.9-2.1L75.6,56.5z"/>
</svg>
